<svg width="512" height="512" viewBox="0 0 512 512" fill="none" xmlns="http://www.w3.org/2000/svg">
<rect width="512" height="512" rx="128" fill="#434256"/>
<path d="M165.49 165.49C215.477 115.503 296.523 115.503 346.51 165.49C396.497 215.477 396.497 296.523 346.51 346.51C334.685 358.335 321.121 367.362 306.642 373.592C303.452 374.965 299.999 372.555 299.999 369.082V339.791C299.999 337.961 301.005 336.286 302.583 335.358C309.178 331.482 315.393 326.714 321.054 321.054C356.982 285.126 356.982 226.874 321.054 190.946C285.126 155.018 226.874 155.018 190.946 190.946C155.018 226.874 155.018 285.126 190.946 321.054C196.607 326.714 202.821 331.482 209.415 335.358C210.993 336.286 211.999 337.961 211.999 339.791V369.082C211.999 372.555 208.546 374.964 205.356 373.592C190.878 367.362 177.315 358.334 165.49 346.51C115.503 296.523 115.503 215.477 165.49 165.49Z" fill="white"/>
<path d="M235.361 102.5H276.639C280.539 102.5 283.789 105.49 284.113 109.377L286.779 141.377C287.144 145.75 283.693 149.5 279.306 149.5H232.694C228.307 149.5 224.856 145.75 225.221 141.377L227.887 109.377C228.211 105.49 231.461 102.5 235.361 102.5Z" fill="white" stroke="white"/>
<path d="M133.661 163.046L163.046 133.661C165.765 130.942 170.101 130.72 173.084 133.147L191.006 147.735C194.453 150.541 194.719 155.712 191.576 158.855L158.854 191.576C155.712 194.719 150.541 194.454 147.735 191.006L133.147 173.084C130.72 170.101 130.942 165.765 133.661 163.046Z" fill="white" stroke="white"/>
<path d="M378.339 163.046L348.954 133.661C346.235 130.942 341.899 130.72 338.916 133.147L320.994 147.735C317.547 150.541 317.281 155.712 320.424 158.855L353.146 191.576C356.288 194.719 361.459 194.454 364.265 191.006L378.853 173.084C381.28 170.101 381.058 165.765 378.339 163.046Z" fill="white" stroke="white"/>
<path d="M133.659 348.96L163.044 378.345C165.763 381.064 170.098 381.286 173.081 378.859L191.004 364.271C194.451 361.465 194.716 356.294 191.574 353.151L158.852 320.43C155.709 317.287 150.538 317.552 147.732 321L133.145 338.922C130.717 341.905 130.939 346.241 133.659 348.96Z" fill="white" stroke="white"/>
<path d="M378.336 348.96L348.951 378.345C346.231 381.064 341.896 381.286 338.913 378.858L320.989 364.27C317.542 361.464 317.277 356.293 320.42 353.15L353.141 320.429C356.284 317.286 361.455 317.551 364.261 320.998L378.849 338.922C381.277 341.905 381.055 346.24 378.336 348.96Z" fill="white" stroke="white"/>
<path d="M409.5 235.361V276.639C409.5 280.539 406.51 283.789 402.623 284.113L370.623 286.779C366.25 287.144 362.5 283.693 362.5 279.306V232.694C362.5 228.307 366.25 224.856 370.623 225.221L402.623 227.887C406.51 228.211 409.5 231.461 409.5 235.361Z" fill="white" stroke="white"/>
<path d="M102.5 276.639V235.361C102.5 231.461 105.49 228.211 109.377 227.887L141.377 225.221C145.75 224.856 149.5 228.307 149.5 232.694V279.306C149.5 283.693 145.75 287.144 141.377 286.779L109.377 284.113C105.49 283.789 102.5 280.539 102.5 276.639Z" fill="white" stroke="white"/>
<path opacity="0.6" d="M280.3 398C280.3 401.727 280.3 403.591 279.691 405.062C278.879 407.022 277.322 408.579 275.361 409.391C273.891 410 272.027 410 268.3 410H243.7C239.973 410 238.109 410 236.639 409.391C234.678 408.579 233.121 407.022 232.309 405.062C231.7 403.591 231.7 401.727 231.7 398H280.3Z" fill="white"/>
<path d="M280.3 398H231.7V263.391C236.076 267.895 245.313 271 256 271C266.687 271 275.924 267.895 280.3 263.391V398Z" fill="white"/>
<path opacity="0.8" d="M276.976 249C278.273 249.8 279.391 250.674 280.3 251.61V263.39C275.924 267.894 266.688 271 256 271C245.313 271 236.076 267.895 231.7 263.391V251.609C232.609 250.674 233.727 249.799 235.023 249H276.976Z" fill="white"/>
<path d="M243.315 225.463C246.767 228.298 251.185 230.001 256 230.001C260.815 230.001 265.233 228.298 268.685 225.464L277.42 244.375C279.513 248.906 280.559 251.173 280.248 253.006C280.077 254.011 279.653 254.945 279.031 255.729C278.789 256.126 278.504 256.518 278.173 256.901C276.967 258.296 275.199 259.564 272.971 260.632C270.742 261.7 268.095 262.547 265.184 263.125C262.272 263.703 259.151 264 256 264C252.848 264 249.727 263.703 246.815 263.125C243.904 262.547 241.258 261.7 239.029 260.632C236.801 259.564 235.032 258.296 233.826 256.901C233.495 256.518 233.209 256.125 232.967 255.728C232.345 254.945 231.923 254.01 231.752 253.006C231.441 251.173 232.487 248.906 234.58 244.375L243.315 225.463Z" fill="white"/>
<path opacity="0.6" d="M253.361 206.92C255.026 206.105 256.972 206.106 258.637 206.92C260.552 207.858 261.94 210.861 264.715 216.868L268.684 225.462C265.232 228.297 260.815 229.999 256 229.999C251.184 229.999 246.766 228.297 243.314 225.461L247.284 216.868C250.059 210.861 251.446 207.858 253.361 206.92Z" fill="white"/>
</svg>
